<svg width="64" height="64" viewBox="0 0 64 64" xmlns="http://www.w3.org/2000/svg">
  <!-- Background rounded square -->
  <rect x="4" y="4" width="56" height="56" rx="14" fill="#16A34A"/>

  <!-- Inner subtle highlight -->
  <rect x="8" y="8" width="48" height="48" rx="12" fill="#22C55E"/>

  <!-- Dollar sign -->
  <path d="M34 16h-4v4.2c-3.9.4-7 2.8-7 6.7 0 3.4 2.3 5.3 5.9 6.5l1.1.4v7.9c-2.1-.3-3.7-1.3-4.8-2.8l-2.8 2.4c1.6 2.4 4.3 4 7.6 4.3V48h4v-4.1c4-.4 7.2-2.9 7.2-6.9 0-3.7-2.5-5.6-6.3-6.9l-.9-.3v-7.5c1.7.3 3 1.2 4 2.4l2.6-2.4c-1.5-2.1-3.9-3.5-6.6-3.8V16zm-4 10.4v6.2l-0.9-.3c-2.3-.8-3.6-1.9-3.6-3.7 0-1.9 1.7-3 4.5-3.2zm4 8.6 1.1.4c2.3.8 3.5 1.9 3.5 3.7 0 2.1-1.8 3.3-4.6 3.5v-7.6z"
        fill="#ECFDF5"/>
</svg>
